<svg width="44" height="44" viewBox="0 0 44 44" fill="none" xmlns="http://www.w3.org/2000/svg">
<g clip-path="url(#clip0_21_59)">
<path d="M44 22C44 9.84973 34.1503 0 22 0C9.84973 0 0 9.84973 0 22C0 32.9808 8.04513 42.0823 18.5625 43.7327V28.3594H12.9766V22H18.5625V17.1531C18.5625 11.6394 21.8469 8.59375 26.8722 8.59375C29.2793 8.59375 31.7969 9.02344 31.7969 9.02344V14.4375H29.0227C26.2898 14.4375 25.4375 16.1333 25.4375 17.8731V22H31.5391L30.5637 28.3594H25.4375V43.7327C35.955 42.0823 44 32.9808 44 22Z" fill="#4C4AB1"/>
</g>
<defs>
<clipPath id="clip0_21_59">
<rect width="44" height="44" fill="white"/>
</clipPath>
</defs>
</svg>
