<svg width="45" height="45" viewBox="0 0 45 45" fill="none" xmlns="http://www.w3.org/2000/svg">
<path d="M22.8202 44.8203C34.9705 44.8203 44.8202 34.9706 44.8202 22.8203C44.8202 10.67 34.9705 0.820312 22.8202 0.820312C10.6699 0.820312 0.82019 10.67 0.82019 22.8203C0.82019 34.9706 10.6699 44.8203 22.8202 44.8203Z" fill="#4C4AB1"/>
<path d="M34.2463 11.3943H11.3943C9.823 11.3943 8.53775 12.6803 8.53775 14.2508V31.3898C8.53775 32.9604 9.823 34.2463 11.3943 34.2463H34.2463C35.8168 34.2463 37.1028 32.9604 37.1028 31.3898V14.2508C37.1028 12.6803 35.8168 11.3943 34.2463 11.3943ZM34.2463 31.3898H31.3898V18.8215L22.8203 24.2486L14.2508 18.8215V31.3898H11.3943V14.2508H13.1084L22.8203 20.2497L32.5321 14.2508H34.2463V31.3898Z" fill="#EFE7E7"/>
</svg>
