<svg width="44" height="44" viewBox="0 0 44 44" fill="none" xmlns="http://www.w3.org/2000/svg">
<g clip-path="url(#clip0_21_68)">
<path fill-rule="evenodd" clip-rule="evenodd" d="M22 44C34.1421 44 44 34.1421 44 22C44 9.85789 34.1421 0 22 0C9.85789 0 0 9.85789 0 22C0 34.1421 9.85789 44 22 44ZM22 35.75C18.2658 35.75 17.7975 35.7342 16.3309 35.6672C14.8674 35.6005 13.8678 35.368 12.9931 35.0281C12.089 34.6767 11.3222 34.2066 10.5578 33.4421C9.79335 32.6777 9.32319 31.9109 8.97179 31.0068C8.63191 30.1322 8.39953 29.1326 8.33267 27.6691C8.26581 26.2025 8.25 25.7342 8.25 22C8.25 18.2658 8.26581 17.7975 8.33267 16.3309C8.39953 14.8674 8.63191 13.8678 8.97179 12.9932C9.32319 12.0891 9.79335 11.3223 10.5578 10.5578C11.3222 9.79335 12.089 9.32318 12.9931 8.97179C13.8678 8.63199 14.8674 8.39953 16.3309 8.33276C17.7975 8.26581 18.2658 8.25 22 8.25C25.7342 8.25 26.2025 8.26581 27.6691 8.33276C29.1326 8.39953 30.1322 8.63199 31.0068 8.97179C31.9109 9.32318 32.6777 9.79335 33.4422 10.5578C34.2066 11.3223 34.6768 12.0891 35.0282 12.9932C35.368 13.8678 35.6005 14.8674 35.6672 16.3309C35.7342 17.7975 35.75 18.2658 35.75 22C35.75 25.7342 35.7342 26.2025 35.6672 27.6691C35.6005 29.1326 35.368 30.1322 35.0282 31.0068C34.6768 31.9109 34.2066 32.6777 33.4422 33.4421C32.6777 34.2066 31.9109 34.6767 31.0068 35.0281C30.1322 35.368 29.1326 35.6005 27.6691 35.6672C26.2025 35.7342 25.7342 35.75 22 35.75ZM22 33.2725C25.6714 33.2725 26.1063 33.2585 27.5562 33.1923C28.8968 33.1311 29.6248 32.9072 30.1093 32.7189C30.7512 32.4695 31.2092 32.1715 31.6903 31.6903C32.1716 31.2092 32.4695 30.7511 32.7189 30.1093C32.9072 29.6248 33.1312 28.8968 33.1923 27.5562C33.2585 26.1063 33.2725 25.6714 33.2725 22C33.2725 18.3286 33.2585 17.8937 33.1923 16.4438C33.1312 15.1032 32.9072 14.3752 32.7189 13.8907C32.4695 13.2488 32.1716 12.7908 31.6903 12.3097C31.2092 11.8284 30.7512 11.5305 30.1093 11.2811C29.6248 11.0928 28.8968 10.8688 27.5562 10.8077C26.1065 10.7415 25.6717 10.7275 22 10.7275C18.3283 10.7275 17.8936 10.7415 16.4438 10.8077C15.1032 10.8688 14.3752 11.0928 13.8907 11.2811C13.2488 11.5305 12.7908 11.8284 12.3096 12.3097C11.8284 12.7908 11.5305 13.2488 11.2811 13.8907C11.0928 14.3752 10.8688 15.1032 10.8076 16.4438C10.7414 17.8937 10.7275 18.3286 10.7275 22C10.7275 25.6714 10.7414 26.1063 10.8076 27.5562C10.8688 28.8968 11.0928 29.6248 11.2811 30.1093C11.5305 30.7511 11.8284 31.2092 12.3096 31.6903C12.7908 32.1715 13.2488 32.4695 13.8907 32.7189C14.3752 32.9072 15.1032 33.1311 16.4438 33.1923C17.8937 33.2585 18.3286 33.2725 22 33.2725ZM22 29.0608C18.1004 29.0608 14.9392 25.8996 14.9392 22C14.9392 18.1004 18.1004 14.9392 22 14.9392C25.8996 14.9392 29.0608 18.1004 29.0608 22C29.0608 25.8996 25.8996 29.0608 22 29.0608ZM22 17.4167C19.4687 17.4167 17.4167 19.4687 17.4167 22C17.4167 24.5313 19.4687 26.5833 22 26.5833C24.5313 26.5833 26.5833 24.5313 26.5833 22C26.5833 19.4687 24.5313 17.4167 22 17.4167ZM30.9898 29.3398C30.9898 28.4285 30.251 27.6898 29.3397 27.6898C28.4286 27.6898 27.6898 28.4285 27.6898 29.3398C27.6898 30.251 28.4286 30.9897 29.3397 30.9897C30.251 30.9897 30.9898 30.251 30.9898 29.3398Z" fill="#4C4AB1"/>
</g>
<defs>
<clipPath id="clip0_21_68">
<rect width="44" height="44" fill="white" transform="matrix(1 0 0 -1 0 44)"/>
</clipPath>
</defs>
</svg>
