<svg width="155" height="67" viewBox="0 0 155 67" fill="none" xmlns="http://www.w3.org/2000/svg">
<path d="M0 10H80V56H0V10Z" fill="#4C4AB1"/>
<path d="M23 35H118V67H23V35Z" fill="#18C4FF"/>
<path d="M52 0H146V45H52V0Z" fill="#F7E43E"/>
<path d="M19.2 41.16H18.92C18.68 41.72 18.3867 42.2667 18.04 42.8C17.72 43.3067 17.3067 43.76 16.8 44.16C16.32 44.56 15.7333 44.88 15.04 45.12C14.3467 45.36 13.5467 45.48 12.64 45.48C9.73333 45.48 7.54667 44.24 6.08 41.76C4.61333 39.28 3.88 35.7733 3.88 31.24C3.88 26.4933 4.72 22.8667 6.4 20.36C8.08 17.8533 10.6533 16.6 14.12 16.6C15.48 16.6 16.6667 16.7867 17.68 17.16C18.72 17.5333 19.6 18.04 20.32 18.68C21.04 19.2933 21.64 20.0267 22.12 20.88C22.6 21.7067 22.9867 22.5867 23.28 23.52L19.24 24.88C19.0267 24.2667 18.7867 23.6933 18.52 23.16C18.2533 22.6 17.92 22.1067 17.52 21.68C17.1467 21.2533 16.68 20.92 16.12 20.68C15.5867 20.44 14.9333 20.32 14.16 20.32C12.2133 20.32 10.8 21.08 9.92 22.6C9.06667 24.0933 8.64 26.12 8.64 28.68V33.12C8.64 34.4 8.73333 35.5733 8.92 36.64C9.10667 37.7067 9.41333 38.6267 9.84 39.4C10.2933 40.1467 10.8667 40.7333 11.56 41.16C12.28 41.5867 13.1467 41.8 14.16 41.8C15.7867 41.8 17.0267 41.32 17.88 40.36C18.76 39.3733 19.2 38.12 19.2 36.6V34.08H13.8V30.72H23.28V45H19.2V41.16ZM45.6644 45C44.411 45 43.4644 44.68 42.8244 44.04C42.211 43.4 41.8377 42.56 41.7044 41.52H41.5044C41.1044 42.7733 40.371 43.7467 39.3044 44.44C38.2644 45.1333 36.931 45.48 35.3044 45.48C33.1977 45.48 31.5177 44.9333 30.2644 43.84C29.011 42.72 28.3844 41.1867 28.3844 39.24C28.3844 37.24 29.1177 35.72 30.5844 34.68C32.0777 33.6133 34.3577 33.08 37.4244 33.08H41.3844V31.48C41.3844 28.68 39.9044 27.28 36.9444 27.28C35.611 27.28 34.531 27.5467 33.7044 28.08C32.8777 28.5867 32.1844 29.2667 31.6244 30.12L29.0244 28C29.611 26.88 30.5977 25.92 31.9844 25.12C33.371 24.2933 35.1577 23.88 37.3444 23.88C39.9577 23.88 42.011 24.5067 43.5044 25.76C44.9977 27.0133 45.7444 28.8267 45.7444 31.2V41.56H48.3444V45H45.6644ZM36.5444 42.28C37.9577 42.28 39.1177 41.96 40.0244 41.32C40.931 40.68 41.3844 39.8533 41.3844 38.84V35.84H37.5044C34.3577 35.84 32.7844 36.7867 32.7844 38.68V39.48C32.7844 40.4133 33.1177 41.12 33.7844 41.6C34.451 42.0533 35.371 42.28 36.5444 42.28ZM51.7288 45V24.36H55.4488V27.04H55.6488C55.9688 26.16 56.4221 25.4133 57.0088 24.8C57.6221 24.1867 58.4888 23.88 59.6088 23.88C60.7021 23.88 61.5421 24.1867 62.1288 24.8C62.7421 25.3867 63.1288 26.2 63.2888 27.24H63.4488C63.8221 26.3067 64.3421 25.52 65.0088 24.88C65.6754 24.2133 66.6354 23.88 67.8888 23.88C69.4888 23.88 70.5954 24.44 71.2088 25.56C71.8488 26.68 72.1688 28.32 72.1688 30.48V45H68.4488V31.04C68.4488 29.6 68.2754 28.6133 67.9288 28.08C67.5821 27.52 67.0221 27.24 66.2488 27.24C65.5554 27.24 64.9688 27.48 64.4888 27.96C64.0354 28.4133 63.8088 29.1067 63.8088 30.04V45H60.0888V31.04C60.0888 29.6 59.9154 28.6133 59.5688 28.08C59.2488 27.52 58.7021 27.24 57.9288 27.24C57.2088 27.24 56.6088 27.48 56.1288 27.96C55.6754 28.4133 55.4488 29.1067 55.4488 30.04V45H51.7288ZM87.2331 20.6C86.1131 20.6 85.3265 20.3733 84.8731 19.92C84.4465 19.4667 84.2331 18.9067 84.2331 18.24V17.4C84.2331 16.7333 84.4465 16.1733 84.8731 15.72C85.3265 15.2667 86.0998 15.04 87.1931 15.04C88.3131 15.04 89.0865 15.2667 89.5131 15.72C89.9665 16.1733 90.1931 16.7333 90.1931 17.4V18.24C90.1931 18.9067 89.9665 19.4667 89.5131 19.92C89.0865 20.3733 88.3265 20.6 87.2331 20.6ZM77.9931 41.48H85.0331V27.88H77.9931V24.36H89.3931V41.48H95.9931V45H77.9931V41.48ZM101.298 45V24.36H105.658V27.88H105.858C106.071 27.3467 106.338 26.84 106.658 26.36C107.004 25.8533 107.418 25.4267 107.898 25.08C108.378 24.7067 108.938 24.4133 109.578 24.2C110.218 23.9867 110.964 23.88 111.818 23.88C113.898 23.88 115.578 24.56 116.858 25.92C118.138 27.28 118.778 29.2133 118.778 31.72V45H114.418V32.36C114.418 29.08 112.991 27.44 110.138 27.44C109.578 27.44 109.031 27.52 108.497 27.68C107.964 27.8133 107.484 28.0267 107.058 28.32C106.631 28.6133 106.284 28.9867 106.018 29.44C105.778 29.8933 105.658 30.4133 105.658 31V45H101.298ZM138.402 41.48H138.162C137.549 42.7333 136.735 43.72 135.722 44.44C134.709 45.1333 133.442 45.48 131.922 45.48C129.495 45.48 127.562 44.5733 126.122 42.76C124.682 40.9467 123.962 38.2533 123.962 34.68C123.962 31.1067 124.682 28.4133 126.122 26.6C127.562 24.7867 129.495 23.88 131.922 23.88C133.442 23.88 134.709 24.24 135.722 24.96C136.735 25.6533 137.549 26.6267 138.162 27.88H138.402V15.4H142.762V45H138.402V41.48ZM133.722 41.92C134.362 41.92 134.962 41.84 135.522 41.68C136.082 41.52 136.575 41.28 137.002 40.96C137.429 40.64 137.762 40.2533 138.002 39.8C138.269 39.32 138.402 38.76 138.402 38.12V31.24C138.402 30.6 138.269 30.0533 138.002 29.6C137.762 29.12 137.429 28.72 137.002 28.4C136.575 28.08 136.082 27.84 135.522 27.68C134.962 27.52 134.362 27.44 133.722 27.44C132.069 27.44 130.789 27.9467 129.882 28.96C129.002 29.9733 128.562 31.32 128.562 33V36.36C128.562 38.04 129.002 39.3867 129.882 40.4C130.789 41.4133 132.069 41.92 133.722 41.92Z" fill="white"/>
</svg>
